<svg xmlns="http://www.w3.org/2000/svg" width="548" height="617" viewBox="0 0 548 617" fill="none">
  <g clip-path="url(#dynamo_clip)">
    <path d="M353.739 616.933H361.246L483.795 555.702L485.834 552.821V64.0753L483.795 61.1799L361.246 0H353.646L353.739 616.933Z" fill="#5294CF"/>
    <path d="M194.259 616.933H186.647L64.2031 555.702L61.7183 551.431L60.4578 66.5644L64.2031 61.1799L186.647 0H194.353L194.259 616.933Z" fill="#1F5B98"/>
    <path d="M186.863 0H361.129V616.933H186.863V0Z" fill="#2D72B8"/>
    <path d="M547.942 294.606L543.801 293.689L484.672 288.18L483.795 288.617L361.137 283.715H186.863L64.2031 288.617V195.16L64.0747 195.228L64.2031 194.954L186.863 166.556H361.137L483.795 194.954L528.886 218.902V203.506L547.942 201.423L545.969 197.578L485.633 154.47L483.795 155.066L361.137 117.091H186.863L64.2031 155.066V61.1797L0.0578613 136.266V201.842L0.554382 201.483L19.114 203.506V219.219L0.0578613 229.408V294.658L0.554382 294.606L19.114 294.88V322.266L3.10119 322.506L0.0578613 322.215V387.49L19.114 397.729V413.624L0.856146 415.638L0.0578613 415.039V480.605L64.2031 555.702V461.823L186.863 499.799H361.137L484.157 461.712L485.792 462.428L545.333 419.955L547.942 415.723L528.886 413.624V398.047L526.389 397.051L485.633 419.002L484.157 422.081L361.137 450.314V450.349H186.863V450.314L64.2031 421.961V328.162L186.863 333.046V333.166H361.137L483.795 328.162L486.588 329.445L543.9 324.514L547.942 322.54L528.886 322.266V294.88L547.942 294.606Z" fill="#1A476F"/>
    <path d="M483.795 461.823V555.702L547.942 480.605V415.467L484.165 461.712L483.795 461.823ZM483.795 422.167L484.165 422.081L547.942 387.807V322.266L483.795 328.162V422.167ZM484.165 195.04L483.795 194.954V288.617L547.942 294.606V229.098L484.165 195.04ZM484.165 155.434L547.942 201.423V136.283L483.795 61.1797V155.066L484.165 155.195V155.434Z" fill="#2D72B8"/>
  </g>
  <defs>
    <clipPath id="dynamo_clip">
      <rect width="548" height="617" fill="white"/>
    </clipPath>
  </defs>
</svg>