<svg width="512" height="512" viewBox="0 0 512 512" fill="none" xmlns="http://www.w3.org/2000/svg">
  <rect width="512" height="512" fill="black"/>
  <path d="M160.203 150C160.203 143.214 160.203 136.927 160.203 130.414C231.294 130.414 301.865 130.414 372.699 130.414C372.699 170.746 372.699 210.837 372.699 252.161C367.597 252.161 362.674 252.138 357.751 252.165C336.441 252.283 315.541 250.124 297.131 238.212C277.534 225.531 270.751 206.625 272.767 184.068C274.117 168.962 280.569 156.48 292.548 146.928C293.503 146.167 293.538 144.251 294.001 142.871C292.602 142.467 291.062 141.462 289.825 141.751C273.146 145.654 260.879 155.152 253.432 170.746C239.789 199.318 246.549 234.275 269.665 253.908C281.1 263.621 294.569 267.371 309.357 267.286C324.5 267.199 339.643 267.267 355.066 267.267C355.066 273.661 355.066 279.744 355.066 286.203C340.017 286.203 325.206 286.189 310.396 286.208C301.45 286.22 292.809 287.698 285.345 292.95C270.076 303.694 262.725 318.959 262.121 337.211C261.526 355.191 261.991 373.206 261.991 391.206C261.991 392.842 261.991 394.479 261.991 396.368C228.054 396.368 194.461 396.368 160.203 396.368C160.203 314.335 160.203 232.418 160.203 150Z" fill="white"/>
</svg>
