<svg width="1000" height="238" viewBox="0 0 1000 238" xmlns="http://www.w3.org/2000/svg">
  <path d="M306.773 223.41V72.9502C306.773 56.354 311.699 43.1318 321.55 33.2835C331.402 23.2529 345.45 18.2375 363.694 18.2375C369.897 18.2375 375.826 18.8758 381.482 20.1525C387.32 21.4291 392.246 23.4352 396.259 26.1709L385.039 57.0835C382.668 55.4421 380.022 54.1655 377.103 53.2536C374.184 52.3418 371.083 51.8858 367.799 51.8858C361.596 51.8858 356.761 53.7096 353.295 57.3571C350.011 60.8222 348.369 66.1111 348.369 73.2237V86.9019L349.464 105.231V223.41H306.773ZM284.059 112.343V79.5157H386.134V112.343H284.059Z"/>
  <path d="M495.038 223.41V194.686L492.301 188.394V136.964C492.301 127.845 489.473 120.733 483.818 115.626C478.345 110.52 469.861 107.966 458.367 107.966C450.522 107.966 442.769 109.243 435.106 111.796C427.626 114.167 421.241 117.45 415.95 121.644L400.625 91.826C408.653 86.1724 418.322 81.7954 429.633 78.695C440.944 75.5946 452.438 74.0444 464.114 74.0444C486.554 74.0444 503.977 79.3333 516.383 89.9111C528.789 100.489 534.992 116.994 534.992 139.426V223.41H495.038ZM450.158 225.598C438.664 225.598 428.812 223.684 420.602 219.854C412.392 215.841 406.098 210.461 401.72 203.713C397.341 196.966 395.152 189.397 395.152 181.008C395.152 172.254 397.25 164.594 401.446 158.028C405.825 151.463 412.666 146.356 421.971 142.709C431.275 138.879 443.407 136.964 458.367 136.964H497.501V161.858H463.02C452.985 161.858 446.053 163.5 442.221 166.782C438.573 170.065 436.748 174.169 436.748 179.093C436.748 184.564 438.846 188.941 443.042 192.224C447.421 195.324 453.35 196.874 460.83 196.874C467.945 196.874 474.331 195.233 479.986 191.95C485.642 188.485 489.747 183.47 492.301 176.904L498.869 196.601C495.768 206.084 490.112 213.288 481.902 218.212C473.692 223.136 463.111 225.598 450.158 225.598Z"/>
  <path d="M660.653 225.598C647.7 225.598 636.571 222.863 627.267 217.392C617.962 211.92 610.847 203.622 605.921 192.497C600.995 181.19 598.533 166.965 598.533 149.821C598.533 132.496 601.087 118.27 606.195 107.146C611.486 96.0207 618.783 87.7226 628.088 82.2513C637.392 76.7801 648.247 74.0444 660.653 74.0444C674.519 74.0444 686.925 77.1448 697.871 83.3456C709 89.5464 717.757 98.3004 724.142 109.608C730.71 120.915 733.994 134.32 733.994 149.821C733.994 165.141 730.71 178.454 724.142 189.762C717.757 201.069 709 209.914 697.871 216.297C686.925 222.498 674.519 225.598 660.653 225.598ZM573.629 223.41V20.426H616.32V106.051L613.584 149.548L614.405 193.318V223.41H573.629ZM653.264 190.582C660.38 190.582 666.674 188.941 672.147 185.658C677.803 182.375 682.272 177.725 685.556 171.707C689.023 165.506 690.756 158.211 690.756 149.821C690.756 141.25 689.023 133.955 685.556 127.936C682.272 121.918 677.803 117.267 672.147 113.985C666.674 110.702 660.38 109.061 653.264 109.061C646.149 109.061 639.764 110.702 634.108 113.985C628.453 117.267 623.983 121.918 620.699 127.936C617.415 133.955 615.773 141.25 615.773 149.821C615.773 158.211 617.415 165.506 620.699 171.707C623.983 177.725 628.453 182.375 634.108 185.658C639.764 188.941 646.149 190.582 653.264 190.582Z"/>
  <path d="M762.572 223.41V76.2329H803.348V117.815L797.601 105.778C801.979 95.3824 809.003 87.5402 818.673 82.2513C828.342 76.7801 840.109 74.0444 853.975 74.0444V113.438C852.15 113.255 850.508 113.164 849.049 113.164C847.589 112.982 846.039 112.89 844.397 112.89C832.72 112.89 823.234 116.264 815.936 123.012C808.821 129.578 805.263 139.882 805.263 153.925V223.41H762.572Z"/>
  <path d="M960.046 223.41V194.686L957.309 188.394V136.964C957.309 127.845 954.481 120.733 948.826 115.626C943.352 110.52 934.869 107.966 923.375 107.966C915.53 107.966 907.777 109.243 900.114 111.796C892.634 114.167 886.249 117.45 880.958 121.644L865.633 91.826C873.66 86.1724 883.33 81.7954 894.641 78.695C905.952 75.5946 917.446 74.0444 929.122 74.0444C951.562 74.0444 968.985 79.3333 981.391 89.9111C993.797 100.489 1000 116.994 1000 139.426V223.41H960.046ZM915.165 225.598C903.672 225.598 893.82 223.684 885.61 219.854C877.4 215.841 871.106 210.461 866.728 203.713C862.349 196.966 860.16 189.397 860.16 181.008C860.16 172.254 862.258 164.594 866.454 158.028C870.833 151.463 877.674 146.356 886.979 142.709C896.283 138.879 908.415 136.964 923.375 136.964H962.509V161.858H928.027C917.993 161.858 911.061 163.5 907.229 166.782C903.581 170.065 901.756 174.169 901.756 179.093C901.756 184.564 903.854 188.941 908.05 192.224C912.429 195.324 918.358 196.874 925.838 196.874C932.953 196.874 939.339 195.233 944.994 191.95C950.65 188.485 954.755 183.47 957.309 176.904L963.877 196.601C960.775 206.084 955.12 213.288 946.91 218.212C938.7 223.136 928.119 225.598 915.165 225.598Z"/>
  <path d="M0 17.5276C0 11.4542 0 5.82807 0 0C63.7821 0 127.097 0 190.65 0C190.65 36.0931 190.65 71.9701 190.65 108.95C186.072 108.95 181.655 108.93 177.238 108.954C158.119 109.059 139.367 107.128 122.851 96.4674C105.268 85.1191 99.1824 68.2007 100.991 48.0147C102.202 34.4957 107.991 23.326 118.739 14.7783C119.596 14.0966 119.627 12.3821 120.042 11.1476C118.787 10.7864 117.405 9.88635 116.295 10.1454C101.331 13.6383 90.3255 22.1375 83.6444 36.0931C71.4037 61.6615 77.4687 92.9439 98.2078 110.514C108.468 119.206 120.552 122.561 133.82 122.485C147.405 122.408 160.992 122.468 174.829 122.468C174.829 128.19 174.829 133.634 174.829 139.414C161.327 139.414 148.039 139.402 134.752 139.419C126.725 139.43 118.973 140.752 112.276 145.452C98.5765 155.067 91.9813 168.728 91.4394 185.061C90.9056 201.151 91.3228 217.273 91.3228 233.38C91.3228 234.845 91.3228 236.309 91.3228 238C60.875 238 30.7357 238 0 238C0 164.59 0 91.2822 0 17.5276Z"/>
</svg>
