<svg xmlns="http://www.w3.org/2000/svg" width="563" height="586" viewBox="0 0 563 586" fill="none">
  <g clip-path="url(#clip0_301_4)">
    <path d="M135.883 551.577H114.225C113.459 515.02 111.349 480.651 107.901 448.446H107.708L74.7333 551.577H58.2437L25.4655 448.446H25.2771C22.8455 479.366 21.3138 513.743 20.6776 551.577H0.936157C2.20845 505.57 5.40592 462.437 10.516 422.176H37.3597L68.602 517.259H68.7946L100.229 422.176H125.914C131.539 469.334 134.862 512.471 135.883 551.577ZM229.811 456.105C220.993 503.958 209.358 538.729 194.919 560.433C183.669 577.14 171.344 585.502 157.922 585.502C154.344 585.502 149.928 584.422 144.697 582.28V570.741C147.254 571.109 150.255 571.319 153.703 571.319C159.973 571.319 165.012 569.594 168.854 566.137C173.449 561.927 175.747 557.194 175.747 551.958C175.747 548.367 173.955 541.026 170.381 529.91L146.614 456.101H167.891L184.95 511.303C188.783 523.838 190.382 532.589 189.742 537.574C199.071 512.659 205.587 485.493 209.299 456.097H229.811V456.105Z" fill="#5D87A1"/>
    <path d="M518.106 551.578H456.584V422.176H477.28V535.649H518.106V551.578ZM440.48 554.704L416.691 542.964C418.801 541.232 420.818 539.357 422.634 537.185C432.746 525.307 437.789 507.742 437.789 484.477C437.789 441.667 420.989 420.251 387.378 420.251C370.897 420.251 358.04 425.683 348.845 436.552C338.742 448.438 333.699 465.941 333.699 489.08C333.699 511.827 338.169 528.513 347.113 539.097C355.295 548.686 367.628 553.486 384.122 553.486C390.274 553.486 395.92 552.733 401.064 551.213L432.034 569.243L440.48 554.704ZM363.418 525.684C358.178 517.255 355.558 503.72 355.558 485.058C355.558 452.477 365.456 436.167 385.273 436.167C395.631 436.167 403.223 440.068 408.078 447.852C413.31 456.294 415.942 469.707 415.942 488.109C415.942 520.959 406.036 537.386 386.232 537.386C375.869 537.39 368.277 533.502 363.418 525.684ZM324.68 515.711C324.68 526.684 320.654 535.686 312.61 542.738C304.558 549.761 293.76 553.281 280.229 553.281C267.573 553.281 255.303 549.238 243.425 541.194L248.987 530.082C259.207 535.201 268.461 537.746 276.768 537.746C284.565 537.746 290.659 536.017 295.078 532.589C299.494 529.149 302.126 524.324 302.126 518.222C302.126 510.534 296.765 503.963 286.93 498.459C277.861 493.479 259.722 483.066 259.722 483.066C249.891 475.901 244.969 468.209 244.969 455.536C244.969 445.048 248.64 436.582 255.985 430.141C263.338 423.674 272.826 420.452 284.456 420.452C296.468 420.452 307.387 423.67 317.222 430.04L312.233 441.156C303.821 437.582 295.518 435.795 287.328 435.795C280.694 435.795 275.571 437.389 272.01 440.591C268.419 443.78 266.205 447.861 266.205 452.866C266.205 460.517 271.679 467.171 281.782 472.783C290.973 477.772 309.563 488.365 309.563 488.365C319.645 495.517 324.68 503.138 324.68 515.711Z" fill="#F8981D"/>
    <path d="M526.706 340.311C502.374 339.691 483.534 342.147 467.722 348.855C463.157 350.683 455.898 350.683 455.263 356.469C457.729 358.917 458.014 362.867 460.154 366.245C463.8 372.341 470.156 380.542 475.958 384.818C482.33 389.715 488.726 394.562 495.432 398.83C507.256 406.166 520.659 410.434 532.183 417.746C538.896 421.998 545.569 427.498 552.291 432.076C555.595 434.516 557.711 438.474 562 440V439.07C559.852 436.328 559.241 432.362 557.133 429.31L548.003 420.48C539.181 408.598 528.22 398.226 516.395 389.707C506.662 382.982 485.373 373.843 481.427 362.597L480.808 361.977C487.497 361.349 495.432 358.917 501.788 357.048C512.131 354.314 521.563 354.935 532.174 352.201C537.057 350.977 541.899 349.443 546.798 347.933V345.183C541.297 339.691 537.375 332.395 531.589 327.205C516.11 313.797 499.053 300.683 481.427 289.707C471.987 283.595 459.845 279.662 449.795 274.464C446.173 272.627 440.07 271.722 437.938 268.67C432.485 261.962 429.417 253.132 425.462 245.192C416.673 228.438 408.137 209.848 400.552 192.132C395.067 180.25 391.731 168.385 385.041 157.392C353.71 105.573 319.686 74.1877 267.392 43.3816C256.153 36.9674 242.783 34.2337 228.5 30.8715L205.69 29.6638C200.823 27.5257 195.949 21.7236 191.701 18.9816C174.351 8.01386 129.682 -15.7578 116.922 15.6276C108.702 35.4659 129.08 54.9696 136.078 65.0315C141.246 72.0169 147.943 79.9653 151.557 87.8973C153.697 93.0793 154.299 98.5795 156.439 104.055C161.306 117.471 165.855 132.397 172.251 144.915C175.588 151.297 179.225 158.004 183.49 163.782C185.931 167.161 190.179 168.654 191.107 174.162C186.867 180.234 186.533 189.398 184.1 197.02C173.163 231.466 177.435 274.137 192.938 299.451C197.788 307.073 209.36 323.851 224.838 317.421C238.543 311.937 235.507 294.563 239.446 279.327C240.349 275.647 239.755 273.231 241.578 270.816V271.412C245.818 279.939 250.098 288.157 254.029 296.709C263.461 311.635 279.883 327.189 293.563 337.528C300.846 343.045 306.616 352.478 315.739 355.849V354.935H315.137C313.289 352.201 310.588 350.977 308.162 348.855C302.678 343.363 296.607 336.655 292.35 330.567C279.607 313.487 268.327 294.579 258.318 275.067C253.419 265.601 249.195 255.254 245.248 245.804C243.409 242.156 243.409 236.656 240.357 234.82C235.784 241.519 229.119 247.322 225.782 255.531C219.996 268.661 219.394 284.811 217.246 301.605L216.049 302.193C206.365 299.753 202.996 289.707 199.318 281.18C190.212 259.522 188.682 224.758 196.584 199.77C198.699 193.38 207.855 173.257 204.201 167.169C202.37 161.334 196.283 158.013 192.946 153.418C189.024 147.641 184.727 140.329 181.992 133.915C174.701 116.851 171.031 97.943 163.178 80.8875C159.507 72.9391 153.135 64.7133 147.976 57.3933C142.182 49.1674 135.81 43.3735 131.228 33.6216C129.714 30.2677 127.59 24.7838 130.024 21.136C130.618 18.6878 131.855 17.7739 134.28 17.1618C138.219 13.8242 149.473 18.0676 153.42 19.9037C164.691 24.4736 174.115 28.7416 183.522 35.1395C187.778 38.1997 192.344 43.9936 197.804 45.5197H204.201C213.909 47.6414 224.855 46.1073 233.994 48.8655C250.099 54.0556 264.69 61.6694 277.776 69.887C317.594 95.2092 350.431 131.189 372.598 174.162C376.236 181.164 377.782 187.578 381.102 194.882C387.507 209.832 395.425 225.076 401.781 239.708C408.169 254.03 414.256 268.653 423.379 280.551C427.928 286.949 446.206 290.303 454.401 293.657C460.463 296.391 469.903 298.823 475.372 302.177C485.715 308.566 496.018 315.903 505.743 322.929C510.585 326.585 525.803 334.207 526.706 340.311ZM216.603 75.3873C212.406 75.3435 208.222 75.8594 204.16 76.9214V77.5335H204.746C207.195 82.4053 211.452 85.7838 214.487 90.0354C216.937 94.9236 219.061 99.7709 221.461 104.651L222.047 104.047C226.336 101.003 228.468 96.1232 228.468 88.8032C226.621 86.6488 226.336 84.5434 224.798 82.4053C223.007 79.3533 219.061 77.8354 216.603 75.3873Z" fill="#5D87A1"/>
    <path d="M558.979 551.556H562.218V535.702H557.359L553.396 546.521L549.089 535.702H544.41V551.556H547.469V539.494H547.641L552.153 551.556H554.484L558.979 539.494V551.556ZM532.884 551.556H536.312V538.389H540.798V535.698H528.209V538.389H532.876L532.884 551.556Z" fill="#F8981D"/>
  </g>
  <defs>
    <clipPath id="clip0_301_4">
      <rect width="563" height="586" fill="white"/>
    </clipPath>
  </defs>
</svg>