<svg width="250" height="250" viewBox="0 0 250 250" fill="none" xmlns="http://www.w3.org/2000/svg">
  <path d="M125 178.139L211.515 196.408V52.7806L125 71.049V178.139Z" fill="#205B97"/>
  <path d="M211.515 52.7806L228 60.0643V189.045L211.515 196.329V52.7806ZM125 178.139L38.4854 196.369V52.7806L125 71.049V178.139Z" fill="#5193CE"/>
  <path d="M38.4854 52.7806L22 60.1037V189.085L38.4854 196.369V52.7806Z" fill="#205B97"/>
  <path d="M146.995 225.582L179.966 210.976V38.6069L146.995 24L136.909 119.712L146.995 225.582Z" fill="#5193CE"/>
  <path d="M103.005 225.582L70.0341 210.976V38.6069L103.005 24L113.092 119.712L103.005 225.582Z" fill="#205B97"/>
  <path d="M103.005 24H147.395V225.188H103.005V24Z" fill="#2E73B7"/>
</svg>
