<svg width="699" height="496" viewBox="0 0 699 496" fill="none" xmlns="http://www.w3.org/2000/svg">
    <path d="M347.778 385.669C347.778 385.669 335.384 404.961 335.8 426.427C336.294 451.946 357.933 470.585 357.933 470.585C357.933 470.585 378.833 451.123 378.338 425.603C378.049 410.611 369.047 385.257 369.047 385.257L347.778 385.669ZM407.712 301.913C411.001 282.146 412.868 260.153 412.868 236.917C412.868 151.634 357.557 82.5018 357.557 82.5018C357.557 82.5018 347.974 94.4965 336.792 114.613C336.728 114.736 336.648 114.842 336.592 114.975C320.939 143.226 302.244 187.323 302.244 236.917C302.244 260.152 304.107 282.146 307.396 301.913C293.173 315.175 263.95 346.529 263.95 380.337C294.751 372.504 327.227 371.897 336.571 371.897C338.285 371.897 339.222 371.917 339.222 371.917L339.175 371.827H375.931L375.885 371.917C375.885 371.917 376.82 371.897 378.536 371.897C387.883 371.897 420.356 372.504 451.16 380.337C451.161 346.53 421.931 315.17 407.712 301.913Z" fill="#B3B3B3"/>
    <path d="M329.592 128.37C329.592 128.37 360.832 106.801 387.04 128.37L358.316 82.5027L329.592 126.711" fill="#606E82"/>
    <path d="M357.933 473.713C357.183 473.713 356.459 473.444 355.891 472.956C354.966 472.156 333.19 453.099 332.673 426.488C332.244 404.326 344.62 384.799 345.147 383.979C345.424 383.547 345.804 383.19 346.252 382.939C346.701 382.689 347.204 382.552 347.718 382.543L368.988 382.13C370.215 382.067 371.546 382.943 371.995 384.21C372.37 385.264 381.17 410.219 381.465 425.542C381.981 452.152 360.959 472.04 360.064 472.872C359.486 473.413 358.724 473.714 357.933 473.713ZM349.575 388.761C346.876 393.469 338.596 409.346 338.928 426.367C339.297 445.557 352.568 460.849 357.842 466.18C362.907 460.635 375.583 444.8 375.211 425.663C374.983 413.814 368.945 394.764 366.827 388.427L349.575 388.761Z" fill="#404041"/>
    <path d="M287.834 385.897C287.834 385.897 278.921 402.093 280.43 419.337C282.224 439.837 300.65 453.644 300.65 453.644C300.65 453.644 316.396 436.846 314.602 416.346C313.548 404.303 304.92 384.401 304.92 384.401L287.834 385.897Z" fill="#606E82"/>
    <path d="M300.649 456.773C299.973 456.773 299.315 456.553 298.774 456.147C297.977 455.549 279.21 441.253 277.313 419.61C275.737 401.625 284.711 385.083 285.094 384.388C285.341 383.938 285.696 383.557 286.126 383.276C286.556 382.996 287.049 382.825 287.56 382.78L304.647 381.285C305.968 381.178 307.252 381.923 307.789 383.158C308.147 383.989 316.632 403.669 317.715 416.074C319.609 437.716 303.611 455.056 302.931 455.784C302.638 456.096 302.285 456.345 301.892 456.515C301.5 456.685 301.076 456.773 300.649 456.773ZM289.844 388.86C287.823 393.088 282.389 405.877 283.542 419.064C284.832 433.764 295.506 444.934 300.257 449.226C304.189 444.16 312.767 431.268 311.487 416.619C310.682 407.42 305.094 393.039 302.915 387.716L289.844 388.86ZM267.314 76.9409C261.189 76.9409 256.208 71.959 256.208 65.8365C256.208 59.7132 261.19 54.7306 267.314 54.7306C273.435 54.7306 278.417 59.714 278.417 65.8365C278.417 71.9598 273.435 76.9409 267.314 76.9409ZM267.314 60.9859C266.028 60.9871 264.795 61.4986 263.885 62.408C262.976 63.3174 262.465 64.5504 262.463 65.8365C262.465 67.1223 262.977 68.355 263.886 69.264C264.795 70.1731 266.028 70.6843 267.314 70.6856C268.599 70.6835 269.831 70.1718 270.74 69.2629C271.649 68.3539 272.16 67.1218 272.161 65.8365C272.161 63.116 270.032 60.9859 267.314 60.9859ZM647.863 358.477C641.738 358.477 636.757 353.495 636.757 347.372C636.757 341.25 641.738 336.266 647.863 336.266C653.983 336.266 658.965 341.25 658.965 347.372C658.965 353.495 653.983 358.477 647.863 358.477ZM647.863 342.522C646.576 342.523 645.343 343.034 644.434 343.944C643.525 344.853 643.013 346.086 643.012 347.372C643.014 348.658 643.525 349.891 644.435 350.8C645.344 351.709 646.577 352.22 647.863 352.221C649.148 352.219 650.38 351.707 651.288 350.799C652.197 349.89 652.708 348.657 652.71 347.372C652.71 344.652 650.581 342.522 647.863 342.522ZM539.727 191.29C533.603 191.29 528.622 186.306 528.622 180.184C528.622 174.06 533.603 169.078 539.727 169.078C545.852 169.078 550.833 174.061 550.833 180.184C550.833 186.306 545.852 191.29 539.727 191.29ZM539.727 175.333C538.441 175.334 537.208 175.846 536.299 176.755C535.39 177.665 534.878 178.898 534.877 180.184C534.877 182.859 537.053 185.034 539.727 185.034C542.402 185.034 544.578 182.859 544.578 180.184C544.577 178.898 544.065 177.665 543.156 176.755C542.247 175.846 541.014 175.334 539.727 175.333ZM120.148 337.301C114.027 337.301 109.045 332.319 109.045 326.196C109.045 320.071 114.027 315.089 120.148 315.089C126.273 315.089 131.254 320.072 131.254 326.196C131.254 332.319 126.273 337.301 120.148 337.301ZM120.148 321.343C117.476 321.343 115.301 323.519 115.301 326.195C115.302 327.481 115.813 328.713 116.722 329.622C117.631 330.531 118.863 331.042 120.148 331.044C121.434 331.043 122.667 330.532 123.576 329.623C124.485 328.714 124.997 327.481 124.999 326.195C124.999 323.474 122.87 321.343 120.148 321.343ZM631.905 76.9409C625.784 76.9409 620.802 71.959 620.802 65.8365C620.802 59.7116 625.784 54.729 631.905 54.729C638.03 54.729 643.011 59.7124 643.011 65.8365C643.012 71.9598 638.03 76.9409 631.905 76.9409ZM631.905 60.9843C629.233 60.9843 627.058 63.16 627.058 65.8365C627.059 67.1218 627.571 68.3539 628.479 69.2629C629.388 70.1718 630.62 70.6835 631.905 70.6856C633.191 70.6843 634.424 70.1731 635.333 69.264C636.242 68.355 636.754 67.1223 636.756 65.8365C636.757 63.1144 634.627 60.9843 631.905 60.9843ZM182.832 196.001C176.707 196.001 171.726 191.018 171.726 184.895C171.726 178.772 176.708 173.789 182.832 173.789C188.953 173.789 193.935 178.773 193.935 184.895C193.935 191.018 188.954 196.001 182.832 196.001ZM182.832 180.045C181.546 180.046 180.313 180.557 179.404 181.467C178.494 182.376 177.983 183.609 177.982 184.895C177.983 186.181 178.494 187.414 179.404 188.324C180.313 189.233 181.546 189.745 182.832 189.746C184.118 189.744 185.35 189.232 186.259 188.323C187.167 187.413 187.678 186.181 187.68 184.895C187.68 182.175 185.551 180.045 182.832 180.045ZM531.752 457.745C525.627 457.745 520.646 452.761 520.646 446.639C520.646 440.515 525.628 435.533 531.752 435.533C537.873 435.533 542.855 440.516 542.855 446.639C542.855 452.762 537.874 457.745 531.752 457.745ZM531.752 441.788C529.077 441.788 526.902 443.964 526.902 446.639C526.902 449.314 529.077 451.489 531.752 451.489C533.038 451.487 534.27 450.975 535.179 450.066C536.088 449.157 536.599 447.924 536.6 446.639C536.6 443.918 534.471 441.788 531.752 441.788ZM467.406 100.398C467.965 100.399 468.519 100.29 469.036 100.077C469.553 99.8632 470.022 99.5498 470.418 99.1544C470.813 98.759 471.126 98.2894 471.34 97.7726C471.553 97.2558 471.663 96.7019 471.661 96.1427C471.663 95.5835 471.554 95.0294 471.341 94.5125C471.127 93.9955 470.814 93.5258 470.418 93.1303C470.023 92.7349 469.553 92.4215 469.036 92.2081C468.519 91.9948 467.965 91.8857 467.406 91.8872C466.847 91.886 466.293 91.9953 465.776 92.2088C465.26 92.4223 464.79 92.7357 464.395 93.1311C464 93.5265 463.686 93.9961 463.473 94.513C463.26 95.0298 463.151 95.5836 463.152 96.1427C463.15 96.7019 463.259 97.256 463.472 97.773C463.685 98.29 463.999 98.7598 464.394 99.1553C464.789 99.5508 465.259 99.8642 465.776 100.078C466.293 100.291 466.847 100.4 467.406 100.398ZM132.381 261.556C132.94 261.557 133.494 261.448 134.011 261.235C134.528 261.021 134.997 260.708 135.392 260.312C135.788 259.917 136.101 259.447 136.315 258.931C136.528 258.414 136.637 257.86 136.636 257.301C136.637 256.741 136.528 256.187 136.315 255.67C136.102 255.154 135.789 254.684 135.393 254.288C134.998 253.893 134.528 253.579 134.011 253.366C133.494 253.153 132.94 253.044 132.381 253.045C131.822 253.044 131.268 253.153 130.751 253.367C130.235 253.58 129.765 253.894 129.37 254.289C128.974 254.684 128.661 255.154 128.448 255.671C128.234 256.188 128.125 256.742 128.126 257.301C128.125 257.86 128.234 258.414 128.447 258.931C128.66 259.448 128.974 259.918 129.369 260.313C129.764 260.708 130.234 261.022 130.751 261.235C131.268 261.449 131.822 261.558 132.381 261.556ZM106.116 62.1121C106.675 62.1133 107.229 62.004 107.746 61.7906C108.263 61.5771 108.732 61.2637 109.128 60.8683C109.523 60.4729 109.837 60.0033 110.05 59.4865C110.263 58.9697 110.373 58.4158 110.372 57.8566C110.373 57.2974 110.264 56.7433 110.051 56.2263C109.837 55.7094 109.524 55.2397 109.128 54.8442C108.733 54.4488 108.263 54.1353 107.746 53.922C107.229 53.7087 106.675 53.5996 106.116 53.6011C105.557 53.5999 105.003 53.7092 104.486 53.9227C103.97 54.1361 103.5 54.4496 103.105 54.845C102.71 55.2404 102.396 55.71 102.183 56.2269C101.97 56.7437 101.861 57.2975 101.862 57.8566C101.86 58.4158 101.969 58.9698 102.182 59.4867C102.396 60.0037 102.709 60.4734 103.104 60.8689C103.499 61.2644 103.969 61.5778 104.486 61.7912C105.003 62.0045 105.557 62.1136 106.116 62.1121ZM4.60258 235.675C5.16174 235.676 5.71564 235.567 6.23247 235.354C6.74929 235.14 7.21888 234.827 7.61427 234.431C8.00967 234.036 8.32308 233.566 8.53653 233.049C8.74998 232.533 8.85926 231.979 8.8581 231.42C8.85958 230.86 8.75051 230.306 8.53716 229.789C8.32382 229.272 8.0104 228.803 7.61493 228.407C7.21946 228.012 6.74975 227.699 6.23278 227.485C5.71581 227.272 5.1618 227.163 4.60258 227.165C4.04355 227.164 3.4898 227.273 2.97312 227.486C2.45643 227.7 1.98698 228.013 1.59172 228.408C1.19647 228.804 0.883192 229.273 0.669871 229.79C0.456549 230.307 0.347387 230.861 0.348652 231.42C0.346963 231.979 0.45583 232.533 0.668991 233.05C0.882153 233.567 1.19541 234.036 1.59074 234.432C1.98606 234.827 2.45567 235.141 2.97255 235.354C3.48943 235.567 4.04339 235.677 4.60258 235.675ZM506.717 42.6919C507.276 42.693 507.83 42.5836 508.346 42.3701C508.863 42.1566 509.332 41.8431 509.728 41.4477C510.123 41.0524 510.436 40.5828 510.649 40.066C510.863 39.5493 510.972 38.9955 510.971 38.4364C510.972 37.8773 510.863 37.3234 510.65 36.8065C510.437 36.2896 510.124 35.82 509.728 35.4246C509.333 35.0292 508.863 34.7158 508.347 34.5025C507.83 34.2892 507.276 34.1802 506.717 34.1817C506.158 34.1804 505.604 34.2896 505.087 34.503C504.57 34.7164 504.101 35.0297 503.706 35.4251C503.31 35.8204 502.997 36.29 502.784 36.8067C502.571 37.3235 502.461 37.8773 502.463 38.4364C502.461 38.9956 502.57 39.5496 502.783 40.0665C502.996 40.5835 503.31 41.0532 503.705 41.4487C504.1 41.8442 504.57 42.1576 505.087 42.371C505.604 42.5843 506.158 42.6934 506.717 42.6919ZM682.768 235.675C683.327 235.676 683.881 235.567 684.398 235.353C684.914 235.14 685.384 234.826 685.779 234.431C686.174 234.036 686.488 233.566 686.701 233.049C686.914 232.532 687.023 231.979 687.022 231.42C687.024 230.86 686.915 230.307 686.702 229.79C686.488 229.273 686.175 228.803 685.78 228.408C685.384 228.012 684.915 227.699 684.398 227.486C683.881 227.272 683.327 227.163 682.768 227.165C682.209 227.164 681.655 227.273 681.139 227.486C680.622 227.7 680.152 228.013 679.757 228.408C679.362 228.804 679.049 229.273 678.835 229.79C678.622 230.307 678.513 230.861 678.514 231.42C678.513 231.979 678.621 232.533 678.834 233.05C679.048 233.567 679.361 234.037 679.756 234.432C680.152 234.828 680.621 235.141 681.138 235.354C681.655 235.568 682.209 235.677 682.768 235.675ZM510.971 359.605C511.531 359.606 512.084 359.497 512.601 359.283C513.118 359.07 513.587 358.756 513.982 358.361C514.378 357.966 514.691 357.496 514.904 356.979C515.117 356.463 515.227 355.909 515.225 355.35C515.227 354.791 515.118 354.237 514.905 353.72C514.692 353.203 514.378 352.733 513.983 352.338C513.588 351.942 513.118 351.629 512.601 351.415C512.085 351.202 511.531 351.093 510.971 351.094C510.412 351.093 509.859 351.202 509.342 351.416C508.825 351.629 508.355 351.942 507.96 352.338C507.565 352.733 507.252 353.203 507.038 353.72C506.825 354.237 506.716 354.791 506.718 355.35C506.716 355.909 506.825 356.463 507.038 356.98C507.251 357.497 507.564 357.967 507.959 358.362C508.355 358.758 508.824 359.071 509.341 359.284C509.858 359.498 510.412 359.607 510.971 359.605ZM471.66 235.675C472.219 235.676 472.773 235.567 473.289 235.353C473.806 235.14 474.276 234.826 474.671 234.431C475.066 234.036 475.379 233.566 475.593 233.049C475.806 232.532 475.915 231.979 475.914 231.42C475.915 230.86 475.806 230.307 475.593 229.79C475.38 229.273 475.067 228.803 474.671 228.408C474.276 228.012 473.807 227.699 473.29 227.486C472.773 227.272 472.219 227.163 471.66 227.165C471.101 227.164 470.547 227.273 470.03 227.486C469.514 227.7 469.044 228.013 468.649 228.408C468.254 228.804 467.94 229.273 467.727 229.79C467.514 230.307 467.405 230.861 467.406 231.42C467.404 231.979 467.513 232.533 467.726 233.05C467.939 233.567 468.252 234.037 468.648 234.432C469.043 234.828 469.513 235.141 470.03 235.354C470.547 235.568 471.101 235.677 471.66 235.675ZM205.366 427.491C205.925 427.492 206.479 427.383 206.995 427.169C207.512 426.956 207.981 426.642 208.377 426.247C208.772 425.852 209.085 425.382 209.298 424.865C209.512 424.349 209.621 423.795 209.62 423.236C209.621 422.677 209.512 422.123 209.299 421.606C209.086 421.089 208.773 420.619 208.377 420.224C207.982 419.828 207.512 419.515 206.996 419.301C206.479 419.088 205.925 418.979 205.366 418.98C204.807 418.979 204.253 419.088 203.736 419.302C203.219 419.515 202.75 419.828 202.354 420.224C201.959 420.619 201.646 421.089 201.433 421.606C201.219 422.123 201.11 422.677 201.112 423.236C201.11 423.795 201.219 424.349 201.432 424.866C201.645 425.383 201.958 425.853 202.354 426.248C202.749 426.644 203.219 426.957 203.736 427.17C204.252 427.384 204.806 427.493 205.366 427.491ZM60.8083 483.207C61.3673 483.208 61.9211 483.099 62.4378 482.886C62.9545 482.672 63.4239 482.359 63.8192 481.963C64.2144 481.568 64.5277 481.098 64.741 480.582C64.9543 480.065 65.0635 479.511 65.0622 478.952C65.0638 478.393 64.9549 477.839 64.7417 477.322C64.5285 476.805 64.2152 476.335 63.8199 475.94C63.4246 475.544 62.955 475.231 62.4382 475.017C61.9213 474.804 61.3674 474.695 60.8083 474.696C60.2492 474.695 59.6953 474.804 59.1785 475.018C58.6617 475.231 58.1922 475.545 57.7969 475.94C57.4016 476.335 57.0884 476.805 56.8751 477.322C56.6619 477.839 56.5529 478.393 56.5544 478.952C56.5525 479.511 56.6612 480.065 56.8743 480.582C57.0874 481.099 57.4006 481.569 57.796 481.965C58.1913 482.36 58.661 482.674 59.178 482.887C59.695 483.1 60.249 483.209 60.8083 483.207ZM76.8905 169.95C77.4495 169.951 78.0033 169.841 78.52 169.628C79.0367 169.414 79.5061 169.101 79.9014 168.705C80.2966 168.31 80.6099 167.841 80.8232 167.324C81.0365 166.807 81.1457 166.253 81.1444 165.694C81.146 165.135 81.037 164.581 80.8238 164.064C80.6106 163.547 80.2974 163.078 79.9021 162.682C79.5068 162.287 79.0372 161.973 78.5204 161.76C78.0035 161.546 77.4496 161.437 76.8905 161.439C76.3314 161.437 75.7775 161.547 75.2607 161.76C74.7439 161.973 74.2744 162.287 73.8791 162.682C73.4838 163.078 73.1706 163.547 72.9573 164.064C72.7441 164.581 72.6351 165.135 72.6365 165.694C72.6348 166.253 72.7436 166.807 72.9567 167.324C73.1698 167.841 73.4831 168.311 73.8784 168.707C74.2738 169.102 74.7434 169.416 75.2603 169.629C75.7773 169.842 76.3313 169.951 76.8905 169.95ZM259.335 265.81C259.894 265.811 260.447 265.702 260.964 265.489C261.481 265.275 261.95 264.962 262.345 264.567C262.741 264.172 263.054 263.702 263.267 263.185C263.481 262.669 263.59 262.115 263.589 261.556C263.59 260.997 263.482 260.443 263.268 259.926C263.055 259.409 262.742 258.939 262.347 258.544C261.951 258.148 261.482 257.835 260.965 257.622C260.448 257.408 259.894 257.299 259.335 257.301C258.776 257.3 258.222 257.409 257.705 257.622C257.188 257.836 256.719 258.149 256.323 258.545C255.928 258.94 255.615 259.41 255.401 259.926C255.188 260.443 255.079 260.997 255.08 261.556C255.079 262.115 255.188 262.669 255.401 263.186C255.614 263.703 255.928 264.172 256.323 264.568C256.718 264.963 257.188 265.276 257.705 265.49C258.222 265.703 258.776 265.812 259.335 265.81ZM594.077 161.971C594.636 161.973 595.19 161.863 595.707 161.65C596.223 161.437 596.693 161.123 597.088 160.728C597.483 160.333 597.796 159.863 598.01 159.347C598.223 158.83 598.332 158.276 598.331 157.717C598.333 157.158 598.224 156.604 598.011 156.087C597.798 155.57 597.485 155.101 597.089 154.705C596.694 154.31 596.224 153.996 595.707 153.783C595.191 153.569 594.637 153.46 594.077 153.462C593.518 153.461 592.964 153.57 592.448 153.784C591.931 153.997 591.462 154.31 591.066 154.706C590.671 155.101 590.358 155.571 590.144 156.088C589.931 156.604 589.822 157.158 589.823 157.717C589.822 158.277 589.931 158.83 590.144 159.347C590.357 159.864 590.67 160.334 591.066 160.729C591.461 161.125 591.931 161.438 592.447 161.651C592.964 161.864 593.518 161.973 594.077 161.971ZM567.87 299.848C568.429 299.849 568.983 299.74 569.499 299.526C570.016 299.313 570.485 299 570.88 298.605C571.276 298.209 571.589 297.74 571.802 297.223C572.016 296.707 572.125 296.153 572.124 295.594C572.126 295.035 572.017 294.481 571.803 293.964C571.59 293.447 571.277 292.977 570.882 292.581C570.486 292.186 570.017 291.872 569.5 291.659C568.983 291.445 568.429 291.336 567.87 291.338C567.311 291.336 566.757 291.446 566.24 291.659C565.723 291.873 565.254 292.186 564.858 292.582C564.463 292.977 564.15 293.447 563.936 293.964C563.723 294.481 563.614 295.035 563.615 295.594C563.614 296.153 563.723 296.707 563.936 297.224C564.149 297.741 564.462 298.21 564.858 298.606C565.253 299.001 565.723 299.314 566.24 299.528C566.757 299.741 567.311 299.85 567.87 299.848Z" fill="#404041"/>
    <path d="M263.951 383.465C263.255 383.464 262.58 383.233 262.03 382.807C261.655 382.514 261.351 382.139 261.141 381.711C260.932 381.283 260.823 380.814 260.823 380.337C260.823 346.991 287.336 316.605 304.041 300.776C300.772 280.538 299.117 259.065 299.117 236.918C299.117 186.704 318.01 142.065 333.857 113.46L334.034 113.138C345.241 92.9814 354.714 81.0499 355.113 80.5524C355.407 80.1858 355.778 79.8897 356.201 79.686C356.624 79.4824 357.088 79.3763 357.557 79.3757C358.506 79.3757 359.404 79.8085 359.998 80.5492C360.558 81.2499 415.995 151.525 415.995 236.919C415.995 259.052 414.336 280.527 411.066 300.777C427.771 316.604 454.287 346.988 454.287 380.338C454.287 380.815 454.179 381.285 453.97 381.713C453.76 382.141 453.456 382.515 453.08 382.808C452.704 383.1 452.266 383.303 451.799 383.4C451.333 383.497 450.85 383.487 450.388 383.369C414.465 374.236 376.095 375.048 375.961 375.045C375.684 375.054 375.408 375.024 375.139 374.956H339.937C339.686 375.019 339.454 375.023 339.149 375.045C339.014 375.051 300.655 374.234 264.721 383.369C264.468 383.433 264.209 383.465 263.951 383.465ZM378.536 368.768C387.473 368.768 417.978 369.333 447.888 376.321C445.645 344.829 417.825 315.616 405.578 304.201C405.201 303.849 404.916 303.409 404.75 302.92C404.584 302.432 404.542 301.91 404.626 301.401C408.019 281.005 409.739 259.311 409.739 236.917C409.739 164.009 368.163 102.266 357.553 87.702C354.034 92.5127 347.127 102.457 339.525 116.132C339.485 116.226 339.378 116.399 339.327 116.489C323.836 144.449 305.372 188.039 305.372 236.917C305.372 259.324 307.092 281.019 310.481 301.401C310.566 301.91 310.523 302.432 310.357 302.92C310.191 303.409 309.907 303.849 309.529 304.201C297.283 315.617 269.462 344.832 267.223 376.321C299.888 368.686 333.106 368.707 338.503 368.779C338.721 368.728 338.946 368.699 339.177 368.699H375.931C376.17 368.699 376.404 368.727 376.629 368.779C377.084 368.773 377.725 368.768 378.536 368.768Z" fill="#404041"/>
    <path d="M326.955 295.593C326.955 303.709 330.179 311.493 335.918 317.231C341.657 322.97 349.44 326.194 357.556 326.194C365.672 326.194 373.456 322.97 379.195 317.231C384.934 311.493 388.158 303.709 388.158 295.593C388.158 287.477 384.934 279.693 379.195 273.955C373.456 268.216 365.672 264.992 357.556 264.992C349.44 264.992 341.657 268.216 335.918 273.955C330.179 279.693 326.955 287.477 326.955 295.593Z" fill="#606E82"/>
    <path d="M357.558 329.322C338.959 329.322 323.827 314.192 323.827 295.593C323.827 276.995 338.959 261.864 357.558 261.864C376.156 261.864 391.285 276.995 391.285 295.593C391.285 314.192 376.156 329.322 357.558 329.322ZM357.558 268.12C342.409 268.12 330.082 280.445 330.082 295.593C330.082 310.742 342.409 323.067 357.558 323.067C372.706 323.067 385.03 310.742 385.03 295.593C385.03 280.444 372.706 268.12 357.558 268.12Z" fill="#404041"/>
    <path d="M331.423 219.007C331.423 225.939 334.176 232.586 339.077 237.487C343.978 242.388 350.626 245.141 357.557 245.141C364.488 245.141 371.135 242.388 376.036 237.487C380.937 232.586 383.691 225.939 383.691 219.007C383.691 212.076 380.937 205.429 376.036 200.528C371.135 195.627 364.488 192.874 357.557 192.874C350.626 192.874 343.978 195.627 339.077 200.528C334.176 205.429 331.423 212.076 331.423 219.007Z" fill="#DBDBDB"/>
    <path d="M357.557 248.269C341.423 248.269 328.295 235.142 328.295 219.007C328.295 202.872 341.422 189.746 357.557 189.746C373.692 189.746 386.82 202.872 386.82 219.007C386.82 235.141 373.691 248.269 357.557 248.269ZM357.557 196.001C344.872 196.001 334.55 206.321 334.55 219.007C334.55 231.693 344.872 242.014 357.557 242.014C370.242 242.014 380.564 231.694 380.564 219.007C380.563 206.322 370.242 196.001 357.557 196.001Z" fill="#404041"/>
    <path d="M229.661 107.672C229.368 107.672 229.077 107.614 228.806 107.501C228.536 107.389 228.289 107.225 228.082 107.017C227.875 106.81 227.71 106.563 227.598 106.292C227.486 106.021 227.428 105.731 227.429 105.438V96.1435C227.421 95.8453 227.472 95.5485 227.581 95.2706C227.69 94.9928 227.853 94.7395 228.061 94.5258C228.269 94.312 228.518 94.1421 228.793 94.0261C229.067 93.9101 229.363 93.8503 229.661 93.8503C229.959 93.8503 230.255 93.9101 230.53 94.0261C230.804 94.1421 231.053 94.312 231.261 94.5258C231.469 94.7395 231.633 94.9928 231.741 95.2706C231.85 95.5485 231.902 95.8453 231.894 96.1435V105.438C231.894 105.731 231.836 106.021 231.724 106.292C231.612 106.563 231.447 106.81 231.24 107.017C231.033 107.225 230.787 107.389 230.516 107.501C230.245 107.614 229.954 107.672 229.661 107.672Z" fill="#404041"/>
    <path d="M234.307 103.024H225.015C223.781 103.024 222.782 102.023 222.782 100.789C222.782 99.556 223.781 98.5553 225.015 98.5553H234.307C235.541 98.5553 236.54 99.556 236.54 100.789C236.54 102.023 235.541 103.024 234.307 103.024Z" fill="#404041"/>
    <path d="M572.124 49.5728C571.831 49.5727 571.54 49.5148 571.269 49.4025C570.998 49.2901 570.752 49.1255 570.545 48.9181C570.338 48.7106 570.173 48.4644 570.061 48.1933C569.949 47.9223 569.891 47.6319 569.891 47.3386V38.0445C569.883 37.7463 569.935 37.4495 570.044 37.1716C570.153 36.8938 570.316 36.6405 570.524 36.4267C570.732 36.213 570.981 36.0431 571.256 35.9271C571.53 35.8111 571.826 35.7513 572.124 35.7513C572.422 35.7513 572.718 35.8111 572.992 35.9271C573.267 36.0431 573.516 36.213 573.724 36.4267C573.932 36.6405 574.095 36.8938 574.204 37.1716C574.313 37.4495 574.365 37.7463 574.357 38.0445V47.3386C574.357 47.6319 574.299 47.9224 574.187 48.1935C574.075 48.4645 573.911 48.7108 573.703 48.9183C573.496 49.1258 573.25 49.2904 572.979 49.4027C572.708 49.515 572.417 49.5728 572.124 49.5728Z" fill="#404041"/>
    <path d="M576.771 44.9252H567.479C566.245 44.9252 565.246 43.9245 565.246 42.6911C565.246 41.4576 566.245 40.4569 567.479 40.4569H576.771C578.005 40.4569 579.004 41.4576 579.004 42.6911C579.004 43.9245 578.005 44.9252 576.771 44.9252Z" fill="#404041"/>
    <path d="M691.671 148.91C691.079 148.909 690.511 148.674 690.092 148.255C689.673 147.836 689.438 147.268 689.438 146.676V137.383C689.43 137.085 689.482 136.788 689.591 136.51C689.699 136.232 689.863 135.979 690.071 135.765C690.279 135.552 690.528 135.382 690.802 135.266C691.077 135.15 691.373 135.09 691.671 135.09C691.969 135.09 692.264 135.15 692.539 135.266C692.814 135.382 693.063 135.552 693.271 135.765C693.479 135.979 693.642 136.232 693.751 136.51C693.86 136.788 693.911 137.085 693.903 137.383V146.676C693.904 146.969 693.846 147.259 693.734 147.53C693.622 147.801 693.457 148.048 693.25 148.255C693.043 148.462 692.796 148.627 692.525 148.739C692.255 148.852 691.964 148.91 691.671 148.91Z" fill="#404041"/>
    <path d="M696.316 144.264H687.024C686.73 144.264 686.44 144.206 686.169 144.093C685.898 143.981 685.652 143.816 685.445 143.609C685.237 143.402 685.073 143.155 684.961 142.884C684.849 142.613 684.791 142.323 684.791 142.03C684.791 141.437 685.026 140.869 685.445 140.45C685.863 140.031 686.431 139.796 687.024 139.795H696.316C696.908 139.796 697.476 140.031 697.895 140.45C698.314 140.869 698.549 141.437 698.549 142.03C698.549 142.323 698.491 142.613 698.379 142.884C698.267 143.155 698.102 143.402 697.895 143.609C697.688 143.816 697.442 143.981 697.171 144.093C696.9 144.206 696.609 144.264 696.316 144.264Z" fill="#404041"/>
    <path d="M607.005 217.379C606.413 217.379 605.845 217.143 605.426 216.724C605.007 216.305 604.772 215.737 604.772 215.145V205.851C604.764 205.552 604.816 205.256 604.925 204.978C605.033 204.7 605.197 204.447 605.405 204.233C605.613 204.019 605.862 203.849 606.136 203.733C606.411 203.617 606.707 203.557 607.005 203.557C607.303 203.557 607.598 203.617 607.873 203.733C608.148 203.849 608.397 204.019 608.605 204.233C608.813 204.447 608.976 204.7 609.085 204.978C609.194 205.256 609.245 205.552 609.237 205.851V215.145C609.238 215.737 609.003 216.305 608.584 216.724C608.165 217.143 607.597 217.379 607.005 217.379Z" fill="#404041"/>
    <path d="M611.655 212.733H602.36C601.767 212.733 601.199 212.497 600.781 212.078C600.362 211.659 600.127 211.091 600.127 210.499C600.127 210.206 600.185 209.915 600.297 209.644C600.409 209.373 600.573 209.127 600.781 208.919C600.988 208.712 601.234 208.547 601.505 208.435C601.776 208.323 602.066 208.265 602.36 208.265H611.655C612.248 208.265 612.816 208.5 613.234 208.919C613.653 209.338 613.888 209.906 613.888 210.499C613.888 211.091 613.653 211.659 613.234 212.078C612.816 212.497 612.248 212.733 611.655 212.733Z" fill="#404041"/>
    <path d="M682.77 481.578C682.178 481.578 681.61 481.342 681.191 480.923C680.773 480.504 680.538 479.936 680.538 479.344V470.051C680.53 469.753 680.582 469.456 680.69 469.178C680.799 468.901 680.962 468.647 681.17 468.433C681.378 468.22 681.627 468.05 681.902 467.934C682.177 467.818 682.472 467.758 682.77 467.758C683.069 467.758 683.364 467.818 683.639 467.934C683.914 468.05 684.163 468.22 684.371 468.433C684.579 468.647 684.742 468.901 684.851 469.178C684.959 469.456 685.011 469.753 685.003 470.051V479.344C685.003 479.637 684.945 479.927 684.833 480.198C684.721 480.47 684.557 480.716 684.349 480.923C684.142 481.131 683.896 481.295 683.625 481.408C683.354 481.52 683.064 481.578 682.77 481.578Z" fill="#404041"/>
    <path d="M687.417 476.931H678.121C677.828 476.931 677.538 476.873 677.267 476.761C676.996 476.649 676.75 476.484 676.542 476.276C676.335 476.069 676.171 475.823 676.058 475.552C675.946 475.281 675.889 474.99 675.889 474.697C675.889 474.404 675.946 474.113 676.058 473.842C676.171 473.571 676.335 473.325 676.542 473.118C676.75 472.91 676.996 472.746 677.267 472.633C677.538 472.521 677.828 472.463 678.121 472.463H687.417C687.71 472.463 688.001 472.521 688.272 472.633C688.542 472.746 688.789 472.91 688.996 473.118C689.203 473.325 689.368 473.571 689.48 473.842C689.592 474.113 689.65 474.404 689.65 474.697C689.65 474.99 689.592 475.281 689.48 475.552C689.368 475.823 689.204 476.069 688.996 476.277C688.789 476.484 688.543 476.649 688.272 476.761C688.001 476.873 687.71 476.931 687.417 476.931Z" fill="#404041"/>
    <path d="M576.77 385.442C576.477 385.442 576.187 385.384 575.916 385.272C575.645 385.16 575.399 384.995 575.191 384.788C574.984 384.58 574.82 384.334 574.708 384.063C574.595 383.792 574.538 383.501 574.538 383.208V373.914C574.53 373.616 574.582 373.319 574.69 373.041C574.799 372.763 574.962 372.51 575.17 372.296C575.378 372.083 575.627 371.913 575.902 371.797C576.177 371.681 576.472 371.621 576.77 371.621C577.069 371.621 577.364 371.681 577.639 371.797C577.914 371.913 578.163 372.083 578.371 372.296C578.579 372.51 578.742 372.763 578.851 373.041C578.959 373.319 579.011 373.616 579.003 373.914V383.208C579.003 383.8 578.768 384.369 578.349 384.788C577.931 385.207 577.363 385.442 576.77 385.442Z" fill="#404041"/>
    <path d="M581.417 380.796H572.124C570.891 380.796 569.892 379.796 569.892 378.562C569.892 377.329 570.891 376.328 572.124 376.328H581.417C582.65 376.328 583.649 377.329 583.649 378.562C583.649 379.796 582.651 380.796 581.417 380.796Z" fill="#404041"/>
    <path d="M446.655 485.834C446.362 485.834 446.072 485.776 445.801 485.663C445.53 485.551 445.284 485.386 445.076 485.179C444.869 484.971 444.705 484.725 444.592 484.454C444.48 484.183 444.423 483.893 444.423 483.599V474.305C444.415 474.007 444.467 473.71 444.575 473.432C444.684 473.155 444.847 472.901 445.055 472.688C445.263 472.474 445.512 472.304 445.787 472.188C446.062 472.072 446.357 472.012 446.655 472.012C446.954 472.012 447.249 472.072 447.524 472.188C447.799 472.304 448.047 472.474 448.255 472.688C448.464 472.901 448.627 473.155 448.735 473.432C448.844 473.71 448.896 474.007 448.888 474.305V483.599C448.888 483.893 448.83 484.183 448.718 484.454C448.606 484.725 448.442 484.971 448.234 485.179C448.027 485.386 447.781 485.551 447.51 485.663C447.239 485.776 446.949 485.834 446.655 485.834Z" fill="#404041"/>
    <path d="M451.301 481.188H442.008C440.774 481.188 439.775 480.187 439.775 478.953C439.775 477.72 440.774 476.719 442.008 476.719H451.301C452.534 476.719 453.533 477.72 453.533 478.953C453.533 480.187 452.535 481.188 451.301 481.188Z" fill="#404041"/>
    <path d="M255.081 461.498C254.489 461.498 253.921 461.262 253.502 460.843C253.083 460.424 252.848 459.856 252.848 459.264V449.969C252.84 449.671 252.892 449.374 253.001 449.097C253.11 448.819 253.273 448.565 253.481 448.352C253.689 448.138 253.938 447.968 254.213 447.852C254.487 447.736 254.783 447.676 255.081 447.676C255.379 447.676 255.675 447.736 255.949 447.852C256.224 447.968 256.473 448.138 256.681 448.352C256.889 448.565 257.052 448.819 257.161 449.097C257.27 449.374 257.322 449.671 257.314 449.969V459.264C257.314 459.856 257.079 460.424 256.66 460.843C256.241 461.262 255.673 461.498 255.081 461.498Z" fill="#404041"/>
    <path d="M259.728 456.851H250.436C249.202 456.851 248.203 455.85 248.203 454.617C248.203 453.383 249.202 452.383 250.436 452.383H259.728C260.962 452.383 261.961 453.383 261.961 454.617C261.961 455.85 260.962 456.851 259.728 456.851Z" fill="#404041"/>
    <path d="M326.955 495.52C326.662 495.52 326.371 495.462 326.1 495.35C325.829 495.238 325.583 495.073 325.376 494.866C325.169 494.658 325.004 494.412 324.892 494.141C324.78 493.87 324.722 493.58 324.722 493.286V483.992C324.714 483.694 324.766 483.397 324.875 483.119C324.984 482.841 325.147 482.588 325.355 482.374C325.563 482.161 325.812 481.991 326.087 481.875C326.361 481.759 326.657 481.699 326.955 481.699C327.253 481.699 327.549 481.759 327.823 481.875C328.098 481.991 328.347 482.161 328.555 482.374C328.763 482.588 328.927 482.841 329.035 483.119C329.144 483.397 329.196 483.694 329.188 483.992V493.286C329.188 493.58 329.13 493.87 329.018 494.141C328.906 494.412 328.741 494.658 328.534 494.866C328.327 495.073 328.081 495.238 327.81 495.35C327.539 495.462 327.248 495.52 326.955 495.52Z" fill="#404041"/>
    <path d="M331.603 490.872H322.308C321.074 490.872 320.075 489.871 320.075 488.638C320.075 487.404 321.074 486.404 322.308 486.404H331.603C332.837 486.404 333.836 487.404 333.836 488.638C333.836 489.871 332.838 490.872 331.603 490.872Z" fill="#404041"/>
    <path d="M187.113 486.226C186.521 486.226 185.953 485.991 185.534 485.572C185.116 485.153 184.88 484.584 184.881 483.992V474.698C184.873 474.4 184.925 474.103 185.033 473.825C185.142 473.547 185.305 473.294 185.513 473.08C185.721 472.866 185.97 472.697 186.245 472.581C186.52 472.465 186.815 472.405 187.113 472.405C187.412 472.405 187.707 472.465 187.982 472.581C188.257 472.697 188.505 472.866 188.713 473.08C188.922 473.294 189.085 473.547 189.193 473.825C189.302 474.103 189.354 474.4 189.346 474.698V483.992C189.346 484.584 189.111 485.153 188.692 485.572C188.274 485.991 187.706 486.226 187.113 486.226Z" fill="#404041"/>
    <path d="M191.761 481.578H182.465C181.232 481.578 180.232 480.577 180.232 479.344C180.232 478.11 181.232 477.11 182.465 477.11H191.761C192.994 477.11 193.993 478.11 193.993 479.344C193.993 480.577 192.994 481.578 191.761 481.578Z" fill="#404041"/>
    <path d="M216.895 333.075C216.602 333.075 216.312 333.017 216.041 332.904C215.77 332.792 215.524 332.627 215.316 332.42C215.109 332.213 214.945 331.966 214.833 331.695C214.72 331.424 214.663 331.134 214.663 330.841V321.548C214.655 321.25 214.707 320.953 214.815 320.675C214.924 320.397 215.087 320.144 215.295 319.93C215.503 319.717 215.752 319.547 216.027 319.431C216.302 319.315 216.597 319.255 216.895 319.255C217.194 319.255 217.489 319.315 217.764 319.431C218.039 319.547 218.288 319.717 218.496 319.93C218.704 320.144 218.867 320.397 218.976 320.675C219.084 320.953 219.136 321.25 219.128 321.548V330.841C219.128 331.134 219.071 331.424 218.959 331.695C218.846 331.966 218.682 332.213 218.475 332.42C218.267 332.628 218.021 332.792 217.75 332.905C217.479 333.017 217.189 333.075 216.895 333.075Z" fill="#404041"/>
    <path d="M221.542 328.429H212.249C211.956 328.429 211.665 328.371 211.395 328.258C211.124 328.146 210.877 327.982 210.67 327.774C210.463 327.567 210.298 327.32 210.186 327.049C210.074 326.778 210.016 326.488 210.017 326.195C210.016 325.602 210.251 325.034 210.67 324.615C211.089 324.196 211.657 323.961 212.249 323.96H221.542C222.134 323.961 222.702 324.196 223.121 324.615C223.539 325.034 223.774 325.602 223.774 326.195C223.774 326.488 223.717 326.778 223.605 327.049C223.492 327.32 223.328 327.567 223.121 327.774C222.913 327.982 222.667 328.146 222.396 328.258C222.125 328.371 221.835 328.429 221.542 328.429Z" fill="#404041"/>
    <path d="M65.0634 421.609C64.7701 421.608 64.4797 421.551 64.2088 421.438C63.9379 421.326 63.6918 421.161 63.4844 420.954C63.2771 420.746 63.1127 420.5 63.0006 420.229C62.8884 419.958 62.8308 419.668 62.8309 419.374V410.08C62.8229 409.782 62.8747 409.485 62.9833 409.207C63.0919 408.93 63.2551 408.676 63.4632 408.463C63.6713 408.249 63.9201 408.079 64.195 407.963C64.4698 407.847 64.7651 407.787 65.0634 407.787C65.3617 407.787 65.657 407.847 65.9319 407.963C66.2067 408.079 66.4555 408.249 66.6636 408.463C66.8717 408.676 67.0349 408.93 67.1435 409.207C67.2521 409.485 67.304 409.782 67.296 410.08V419.374C67.2961 419.668 67.2384 419.958 67.1263 420.229C67.0141 420.5 66.8497 420.746 66.6424 420.954C66.4351 421.161 66.189 421.326 65.918 421.438C65.6471 421.551 65.3567 421.608 65.0634 421.609Z" fill="#404041"/>
    <path d="M69.7097 416.963H60.4171C59.1837 416.963 58.1846 415.962 58.1846 414.729C58.1846 413.495 59.1837 412.495 60.4171 412.495H69.7097C70.9432 412.495 71.9422 413.495 71.9422 414.729C71.9422 415.962 70.9432 416.963 69.7097 416.963Z" fill="#404041"/>
    <path d="M25.1982 333.075C24.9049 333.075 24.6145 333.017 24.3436 332.904C24.0727 332.792 23.8265 332.627 23.6192 332.42C23.4119 332.213 23.2475 331.966 23.1353 331.695C23.0232 331.424 22.9655 331.134 22.9656 330.841V321.548C22.9577 321.25 23.0095 320.953 23.1181 320.675C23.2267 320.397 23.3899 320.144 23.598 319.93C23.8061 319.717 24.0549 319.547 24.3297 319.431C24.6046 319.315 24.8999 319.255 25.1982 319.255C25.4965 319.255 25.7918 319.315 26.0666 319.431C26.3415 319.547 26.5903 319.717 26.7984 319.93C27.0065 320.144 27.1697 320.397 27.2783 320.675C27.3869 320.953 27.4387 321.25 27.4307 321.548V330.841C27.4309 331.134 27.3732 331.424 27.261 331.695C27.1489 331.966 26.9845 332.213 26.7772 332.42C26.5699 332.627 26.3237 332.792 26.0528 332.904C25.7819 333.017 25.4915 333.075 25.1982 333.075Z" fill="#404041"/>
    <path d="M29.8437 328.429H20.548C20.2547 328.429 19.9643 328.371 19.6934 328.258C19.4225 328.146 19.1763 327.982 18.969 327.774C18.7617 327.567 18.5973 327.32 18.4851 327.049C18.373 326.778 18.3153 326.488 18.3154 326.195C18.3152 325.602 18.5503 325.034 18.969 324.615C19.3877 324.196 19.9557 323.961 20.548 323.96H29.8437C30.4361 323.961 31.004 324.196 31.4227 324.615C31.8414 325.034 32.0765 325.602 32.0763 326.195C32.0764 326.488 32.0187 326.778 31.9066 327.049C31.7944 327.32 31.63 327.567 31.4227 327.774C31.2154 327.982 30.9693 328.146 30.6983 328.258C30.4274 328.371 30.137 328.429 29.8437 328.429Z" fill="#404041"/>
    <path d="M29.8437 64.2079C29.5504 64.2078 29.26 64.1499 28.9891 64.0376C28.7182 63.9252 28.472 63.7606 28.2647 63.5532C28.0574 63.3457 27.893 63.0995 27.7809 62.8285C27.6687 62.5575 27.611 62.267 27.6112 61.9737V52.6796C27.6032 52.3814 27.655 52.0846 27.7636 51.8067C27.8722 51.5289 28.0354 51.2756 28.2435 51.0619C28.4516 50.8481 28.7004 50.6782 28.9753 50.5622C29.2501 50.4462 29.5454 50.3865 29.8437 50.3865C30.142 50.3865 30.4373 50.4462 30.7122 50.5622C30.987 50.6782 31.2358 50.8481 31.4439 51.0619C31.652 51.2756 31.8152 51.5289 31.9238 51.8067C32.0324 52.0846 32.0842 52.3814 32.0763 52.6796V61.9737C32.0764 62.267 32.0187 62.5575 31.9066 62.8285C31.7944 63.0995 31.63 63.3457 31.4227 63.5532C31.2154 63.7606 30.9692 63.9252 30.6983 64.0376C30.4274 64.1499 30.137 64.2078 29.8437 64.2079Z" fill="#404041"/>
    <path d="M34.4909 59.5596H25.1984C24.9051 59.5595 24.6147 59.5016 24.3438 59.3893C24.0728 59.277 23.8267 59.1124 23.6194 58.9049C23.4121 58.6974 23.2477 58.4512 23.1355 58.1802C23.0234 57.9092 22.9657 57.6187 22.9658 57.3255C22.9656 56.7331 23.2007 56.165 23.6194 55.746C24.0381 55.327 24.6061 55.0915 25.1984 55.0913H34.4909C35.0833 55.0915 35.6512 55.327 36.0699 55.746C36.4886 56.165 36.7237 56.7331 36.7235 57.3255C36.7236 57.6187 36.6659 57.9092 36.5538 58.1802C36.4416 58.4512 36.2772 58.6974 36.0699 58.9049C35.8626 59.1124 35.6165 59.277 35.3455 59.3893C35.0746 59.5016 34.7842 59.5595 34.4909 59.5596Z" fill="#404041"/>
    <path d="M76.8896 252.023C76.5963 252.023 76.3059 251.965 76.035 251.853C75.7641 251.74 75.5179 251.576 75.3106 251.368C75.1033 251.161 74.9389 250.914 74.8268 250.643C74.7146 250.372 74.6569 250.082 74.657 249.789V240.495C74.6491 240.196 74.7009 239.9 74.8095 239.622C74.9181 239.344 75.0813 239.091 75.2894 238.877C75.4975 238.663 75.7463 238.493 76.0211 238.377C76.296 238.261 76.5913 238.201 76.8896 238.201C77.1879 238.201 77.4832 238.261 77.7581 238.377C78.0329 238.493 78.2817 238.663 78.4898 238.877C78.6979 239.091 78.8611 239.344 78.9697 239.622C79.0783 239.9 79.1301 240.196 79.1222 240.495V249.789C79.1224 250.082 79.0648 250.373 78.9527 250.644C78.8406 250.915 78.6762 251.161 78.4688 251.368C78.2615 251.576 78.0153 251.74 77.7443 251.853C77.4734 251.965 77.1829 252.023 76.8896 252.023Z" fill="#404041"/>
    <path d="M81.5368 247.375H72.2443C71.6519 247.375 71.084 247.14 70.6653 246.721C70.2466 246.302 70.0115 245.733 70.0117 245.141C70.0115 244.549 70.2466 243.981 70.6653 243.562C71.084 243.143 71.6519 242.907 72.2443 242.907H81.5368C81.8301 242.907 82.1205 242.965 82.3914 243.077C82.6623 243.19 82.9085 243.354 83.1158 243.562C83.3231 243.769 83.4875 244.015 83.5997 244.286C83.7118 244.557 83.7695 244.848 83.7694 245.141C83.7695 245.434 83.7118 245.725 83.5997 245.996C83.4875 246.267 83.3231 246.513 83.1158 246.721C82.9085 246.928 82.6623 247.093 82.3914 247.205C82.1205 247.317 81.8301 247.375 81.5368 247.375Z" fill="#404041"/>
    <path d="M170.208 14.2871C169.616 14.2869 169.048 14.0514 168.629 13.6324C168.21 13.2135 167.975 12.6453 167.975 12.053V2.75882C167.967 2.46061 168.019 2.16383 168.128 1.88598C168.236 1.60814 168.4 1.35486 168.608 1.14111C168.816 0.927367 169.065 0.757476 169.34 0.641472C169.614 0.525469 169.91 0.465698 170.208 0.465698C170.506 0.465698 170.802 0.525469 171.076 0.641472C171.351 0.757476 171.6 0.927367 171.808 1.14111C172.016 1.35486 172.179 1.60814 172.288 1.88598C172.397 2.16383 172.448 2.46061 172.441 2.75882V12.053C172.441 12.6453 172.206 13.2135 171.787 13.6324C171.368 14.0514 170.8 14.2869 170.208 14.2871Z" fill="#404041"/>
    <path d="M174.854 9.63883H165.559C165.265 9.63873 164.975 9.58085 164.704 9.46852C164.433 9.35618 164.187 9.19159 163.98 8.98413C163.772 8.77667 163.608 8.53041 163.496 8.25941C163.384 7.98841 163.326 7.69797 163.326 7.40468C163.326 7.11139 163.384 6.82095 163.496 6.54995C163.608 6.27895 163.772 6.03269 163.98 5.82523C164.187 5.61777 164.433 5.45317 164.704 5.34083C164.975 5.2285 165.265 5.17064 165.559 5.17053H174.854C175.148 5.17064 175.438 5.2285 175.709 5.34083C175.98 5.45317 176.226 5.61777 176.433 5.82523C176.641 6.03269 176.805 6.27895 176.917 6.54995C177.029 6.82095 177.087 7.11139 177.087 7.40468C177.087 7.69797 177.029 7.98841 176.917 8.25941C176.805 8.53041 176.641 8.77667 176.433 8.98413C176.226 9.19159 175.98 9.35618 175.709 9.46852C175.438 9.58085 175.148 9.63873 174.854 9.63883Z" fill="#404041"/>
    <path d="M393.726 45.3173C393.432 45.3172 393.142 45.2593 392.871 45.147C392.6 45.0346 392.354 44.87 392.147 44.6626C391.939 44.4551 391.775 44.2089 391.663 43.9379C391.551 43.6669 391.493 43.3764 391.493 43.0831V33.789C391.485 33.4908 391.537 33.194 391.645 32.9161C391.754 32.6383 391.917 32.385 392.125 32.1713C392.333 31.9575 392.582 31.7876 392.857 31.6716C393.132 31.5556 393.427 31.4958 393.726 31.4958C394.024 31.4958 394.319 31.5556 394.594 31.6716C394.869 31.7876 395.118 31.9575 395.326 32.1713C395.534 32.385 395.697 32.6383 395.806 32.9161C395.914 33.194 395.966 33.4908 395.958 33.789V43.0831C395.958 43.3764 395.901 43.6669 395.788 43.9379C395.676 44.2089 395.512 44.4551 395.305 44.6626C395.097 44.87 394.851 45.0346 394.58 45.147C394.309 45.2593 394.019 45.3172 393.726 45.3173Z" fill="#404041"/>
    <path d="M398.371 40.6713H389.075C388.483 40.6711 387.915 40.4356 387.496 40.0166C387.078 39.5976 386.843 39.0295 386.843 38.4372C386.843 37.8448 387.078 37.2767 387.496 36.8577C387.915 36.4387 388.483 36.2032 389.075 36.203H398.371C398.963 36.2032 399.531 36.4387 399.95 36.8577C400.369 37.2767 400.604 37.8448 400.604 38.4372C400.604 38.7304 400.546 39.0209 400.434 39.2919C400.322 39.5629 400.157 39.8091 399.95 40.0166C399.743 40.2241 399.497 40.3887 399.226 40.501C398.955 40.6133 398.664 40.6712 398.371 40.6713Z" fill="#404041"/>
    <path d="M442.401 160.343C442.108 160.343 441.818 160.285 441.547 160.172C441.276 160.06 441.03 159.895 440.822 159.688C440.615 159.481 440.451 159.234 440.338 158.963C440.226 158.692 440.169 158.402 440.169 158.109V148.814C440.161 148.516 440.213 148.219 440.321 147.941C440.43 147.664 440.593 147.41 440.801 147.197C441.009 146.983 441.258 146.813 441.533 146.697C441.808 146.581 442.103 146.521 442.401 146.521C442.7 146.521 442.995 146.581 443.27 146.697C443.545 146.813 443.793 146.983 444.002 147.197C444.21 147.41 444.373 147.664 444.481 147.941C444.59 148.219 444.642 148.516 444.634 148.814V158.109C444.634 158.402 444.576 158.692 444.464 158.963C444.352 159.234 444.188 159.481 443.98 159.688C443.773 159.895 443.527 160.06 443.256 160.172C442.985 160.285 442.695 160.343 442.401 160.343Z" fill="#404041"/>
    <path d="M447.047 155.695H437.751C437.458 155.695 437.167 155.637 436.897 155.525C436.626 155.413 436.379 155.248 436.172 155.041C435.965 154.833 435.8 154.587 435.688 154.316C435.576 154.045 435.518 153.754 435.519 153.461C435.518 152.869 435.753 152.301 436.172 151.882C436.591 151.463 437.159 151.227 437.751 151.227H447.047C447.639 151.227 448.207 151.463 448.626 151.882C449.045 152.301 449.28 152.869 449.279 153.461C449.28 153.754 449.222 154.045 449.11 154.316C448.998 154.587 448.833 154.833 448.626 155.041C448.419 155.248 448.172 155.413 447.901 155.525C447.631 155.637 447.34 155.695 447.047 155.695Z" fill="#404041"/>
    <path d="M451.301 302.475C451.007 302.475 450.717 302.417 450.446 302.304C450.175 302.192 449.929 302.027 449.722 301.82C449.514 301.613 449.35 301.366 449.238 301.095C449.126 300.824 449.068 300.534 449.068 300.241V290.946C449.06 290.648 449.112 290.351 449.221 290.074C449.329 289.796 449.492 289.542 449.701 289.329C449.909 289.115 450.157 288.945 450.432 288.829C450.707 288.713 451.002 288.653 451.301 288.653C451.599 288.653 451.894 288.713 452.169 288.829C452.444 288.945 452.693 289.115 452.901 289.329C453.109 289.542 453.272 289.796 453.381 290.074C453.489 290.351 453.541 290.648 453.533 290.946V300.241C453.533 300.534 453.476 300.824 453.364 301.095C453.252 301.366 453.087 301.613 452.88 301.82C452.673 302.028 452.426 302.192 452.155 302.305C451.884 302.417 451.594 302.475 451.301 302.475Z" fill="#404041"/>
    <path d="M455.947 297.827H446.654C445.421 297.827 444.422 296.827 444.422 295.593C444.422 294.36 445.421 293.359 446.654 293.359H455.947C457.18 293.359 458.18 294.36 458.18 295.593C458.18 296.827 457.18 297.827 455.947 297.827Z" fill="#404041"/>
    <path d="M346.241 208.085H334.98C334.687 208.084 334.397 208.027 334.126 207.914C333.855 207.802 333.609 207.637 333.401 207.43C333.194 207.222 333.03 206.976 332.918 206.705C332.805 206.434 332.748 206.144 332.748 205.85C332.748 205.557 332.805 205.267 332.918 204.996C333.03 204.725 333.194 204.478 333.401 204.271C333.609 204.063 333.855 203.899 334.126 203.787C334.397 203.674 334.687 203.616 334.98 203.616H346.241C346.534 203.616 346.824 203.674 347.095 203.787C347.366 203.899 347.612 204.063 347.82 204.271C348.027 204.478 348.191 204.725 348.304 204.996C348.416 205.267 348.473 205.557 348.473 205.85C348.473 206.144 348.416 206.434 348.304 206.705C348.191 206.976 348.027 207.222 347.82 207.43C347.612 207.637 347.366 207.802 347.095 207.914C346.824 208.027 346.534 208.084 346.241 208.085ZM346.241 233.654H334.98C333.747 233.654 332.748 232.654 332.748 231.42C332.748 230.187 333.747 229.186 334.98 229.186H346.241C347.474 229.186 348.473 230.187 348.473 231.42C348.473 232.654 347.474 233.654 346.241 233.654ZM357.558 221.241H334.98C334.687 221.241 334.397 221.183 334.126 221.07C333.855 220.958 333.609 220.793 333.401 220.586C333.194 220.378 333.03 220.132 332.918 219.861C332.805 219.59 332.748 219.3 332.748 219.006C332.748 218.713 332.805 218.423 332.918 218.152C333.03 217.881 333.194 217.634 333.401 217.427C333.609 217.22 333.855 217.055 334.126 216.943C334.397 216.83 334.687 216.772 334.98 216.772H357.558C357.851 216.772 358.142 216.83 358.413 216.943C358.683 217.055 358.93 217.22 359.137 217.427C359.344 217.634 359.509 217.881 359.621 218.152C359.733 218.423 359.791 218.713 359.79 219.006C359.791 219.3 359.733 219.59 359.621 219.861C359.509 220.132 359.344 220.378 359.137 220.586C358.93 220.793 358.683 220.958 358.413 221.07C358.142 221.183 357.851 221.241 357.558 221.241ZM343.539 283.159H331.38C331.087 283.159 330.796 283.101 330.525 282.989C330.255 282.877 330.008 282.712 329.801 282.505C329.594 282.297 329.429 282.051 329.317 281.78C329.205 281.509 329.147 281.218 329.147 280.925C329.147 280.632 329.205 280.341 329.317 280.07C329.429 279.799 329.594 279.553 329.801 279.346C330.008 279.138 330.255 278.974 330.525 278.861C330.796 278.749 331.087 278.691 331.38 278.691H343.539C343.832 278.691 344.122 278.749 344.393 278.861C344.664 278.974 344.91 279.138 345.118 279.346C345.325 279.553 345.489 279.799 345.602 280.07C345.714 280.341 345.771 280.632 345.771 280.925C345.771 281.218 345.714 281.509 345.602 281.78C345.489 282.051 345.325 282.297 345.118 282.505C344.91 282.712 344.664 282.877 344.393 282.989C344.122 283.101 343.832 283.159 343.539 283.159ZM343.539 308.728H329.593C328.36 308.728 327.36 307.728 327.36 306.494C327.36 305.261 328.36 304.26 329.593 304.26H343.539C344.772 304.26 345.771 305.261 345.771 306.494C345.771 307.728 344.772 308.728 343.539 308.728ZM357.558 296.317H329.593C328.36 296.317 327.36 295.316 327.36 294.083C327.36 292.849 328.36 291.849 329.593 291.849H357.558C358.791 291.849 359.79 292.849 359.79 294.083C359.79 295.316 358.791 296.317 357.558 296.317ZM291.441 408.89H280.257C279.024 408.89 278.024 407.889 278.024 406.656C278.024 405.422 279.024 404.422 280.257 404.422H291.441C292.674 404.422 293.673 405.422 293.673 406.656C293.673 407.889 292.674 408.89 291.441 408.89ZM297.501 421.572H280.428C279.195 421.572 278.196 420.571 278.196 419.338C278.196 418.104 279.195 417.103 280.428 417.103H297.501C298.735 417.103 299.734 418.104 299.734 419.338C299.734 420.571 298.735 421.572 297.501 421.572ZM297.501 433.982H285.849C284.616 433.982 283.617 432.982 283.617 431.748C283.617 430.515 284.616 429.514 285.849 429.514H297.501C298.735 429.514 299.734 430.515 299.734 431.748C299.734 432.982 298.735 433.982 297.501 433.982Z" fill="#404041"/>
    <path d="M403.547 384.402C403.547 384.402 394.92 404.304 393.866 416.347C392.072 436.847 407.818 453.645 407.818 453.645C407.818 453.645 426.245 439.838 428.038 419.338C429.548 402.093 420.634 385.897 420.634 385.897L403.547 384.402Z" fill="#606E82"/>
    <path d="M407.818 456.773C407.39 456.773 406.967 456.685 406.574 456.515C406.182 456.345 405.828 456.096 405.535 455.784C404.855 455.057 388.858 437.717 390.751 416.072C391.834 403.669 400.319 383.99 400.677 383.158C400.941 382.558 401.385 382.055 401.949 381.719C402.512 381.383 403.165 381.232 403.819 381.285L420.906 382.78C421.417 382.825 421.91 382.995 422.34 383.276C422.77 383.556 423.125 383.938 423.372 384.388C423.755 385.084 432.729 401.625 431.153 419.61C429.259 441.253 410.49 455.549 409.692 456.147C409.152 456.553 408.494 456.773 407.818 456.773ZM405.552 387.716C403.376 393.042 397.785 407.43 396.98 416.617C395.696 431.319 404.265 444.173 408.201 449.225C412.954 444.919 423.641 433.714 424.925 419.064C426.082 405.83 420.651 393.076 418.626 388.86L405.552 387.716Z" fill="#404041"/>
    <path d="M428.21 408.89H417.027C415.793 408.89 414.794 407.89 414.794 406.656C414.794 405.423 415.793 404.422 417.027 404.422H428.21C429.444 404.422 430.443 405.423 430.443 406.656C430.443 407.89 429.444 408.89 428.21 408.89ZM428.039 421.572H410.966C409.732 421.572 408.733 420.571 408.733 419.338C408.733 418.104 409.732 417.104 410.966 417.104H428.039C429.273 417.104 430.272 418.104 430.272 419.338C430.272 420.571 429.273 421.572 428.039 421.572ZM422.619 433.983H410.967C409.733 433.983 408.734 432.982 408.734 431.748C408.734 430.515 409.733 429.514 410.967 429.514H422.619C423.853 429.514 424.852 430.515 424.852 431.748C424.852 432.982 423.853 433.983 422.619 433.983Z" fill="#404041"/>
</svg>
