<svg width="250" height="250" viewBox="0 0 250 250" fill="none" xmlns="http://www.w3.org/2000/svg">
  <path d="M125.111 0L16.0835 62.3611V186.944L125.111 250L234.139 187.639V62.6389L125.111 0ZM214 174.583L125.111 225.972L36.2224 175.125V74.7222L125.111 23.3333L214 74.8611V174.583Z" fill="#0078D4"/>
  <path d="M125.111 0L16.0835 62.3611L36.2224 74.7222L125.111 23.3333L214 74.7222L234.139 62.3611L125.111 0Z" fill="url(#paint0_linear_138_5)"/>
  <path d="M177.055 145.486C175.994 143.74 174.431 142.356 172.569 141.514C166.92 129.182 158.266 118.465 147.399 110.345C136.533 102.226 123.803 96.964 110.375 95.0418L200.333 43.0557L179.416 31.0557L76.9721 90.2779C74.9818 91.4235 73.426 93.1947 72.5464 95.316C71.6669 97.4373 71.513 99.7898 72.1086 102.008C72.7042 104.225 74.016 106.184 75.84 107.579C77.664 108.975 79.8979 109.728 82.1943 109.722C82.6177 109.644 83.0353 109.538 83.4443 109.403L85.1804 116.667C98.2415 113.587 111.958 114.975 124.137 120.61C136.316 126.245 146.253 135.801 152.361 147.75L50.2915 206.736L71.1248 218.764L173.25 159.722C174.612 158.908 175.763 157.785 176.611 156.445L177.653 156.195C177.555 155.792 177.403 155.431 177.305 155.028C178.044 153.537 178.408 151.889 178.364 150.226C178.321 148.563 177.871 146.936 177.055 145.486Z" fill="#50E6FF"/>
  <path d="M168.042 125.181C162.96 125.181 157.992 126.688 153.767 129.511C149.541 132.334 146.248 136.347 144.303 141.042C142.359 145.737 141.85 150.904 142.841 155.888C143.833 160.872 146.28 165.45 149.873 169.044C153.467 172.637 158.045 175.084 163.029 176.076C168.013 177.067 173.18 176.558 177.875 174.614C182.57 172.669 186.583 169.376 189.406 165.15C192.229 160.925 193.736 155.957 193.736 150.875C193.736 144.06 191.029 137.525 186.211 132.706C181.392 127.888 174.856 125.181 168.042 125.181ZM82.1808 73.1528C77.0989 73.1528 72.1311 74.6598 67.9057 77.4831C63.6803 80.3065 60.387 84.3194 58.4422 89.0144C56.4975 93.7095 55.9886 98.8758 56.9801 103.86C57.9715 108.844 60.4186 113.423 64.0121 117.016C67.6055 120.609 72.1838 123.057 77.168 124.048C82.1523 125.039 87.3186 124.531 92.0136 122.586C96.7087 120.641 100.722 117.348 103.545 113.122C106.368 108.897 107.875 103.929 107.875 98.8473C107.875 92.0327 105.168 85.4972 100.349 80.6786C95.5309 75.8599 88.9954 73.1528 82.1808 73.1528Z" fill="url(#paint1_linear_138_5)"/>
  <defs>
    <linearGradient id="paint0_linear_138_5" x1="125.111" y1="74.7222" x2="125.111" y2="0" gradientUnits="userSpaceOnUse">
      <stop offset="0.199" stop-color="#005BA1"/>
      <stop offset="1" stop-color="#0078D4"/>
    </linearGradient>
    <linearGradient id="paint1_linear_138_5" x1="125.111" y1="176.57" x2="125.111" y2="73.4306" gradientUnits="userSpaceOnUse">
      <stop stop-color="#50E6FF"/>
      <stop offset="0.172" stop-color="#32BEDD"/>
      <stop offset="0.5" stop-color="#198AB3"/>
      <stop offset="0.662" stop-color="#32BEDD"/>
      <stop offset="0.975" stop-color="#50E6FF"/>
    </linearGradient>
  </defs>
</svg>
