<svg width="250" height="250" viewBox="0 0 250 250" fill="none" xmlns="http://www.w3.org/2000/svg">
  <path d="M120.954 34H120.723L118.416 34.4575C113.342 35.0675 108.383 36.4781 103.539 38.6894C98.6951 40.9006 94.4277 43.8362 90.7371 47.4963C84.4323 53.1387 80.0497 60.0775 77.5896 68.3126C76.2054 72.8874 75.5903 77.6912 75.7442 82.7237C75.898 87.7564 76.8207 92.5599 78.512 97.135C81.1263 103.998 85.1245 109.945 90.5064 114.977L93.5049 117.723L74.3602 148.604C70.362 148.451 66.9022 148.985 63.9805 150.205C59.3673 152.187 55.9072 155.237 53.6005 159.355C52.5243 161.643 51.8323 164.006 51.5247 166.446C51.2171 168.886 51.3709 171.326 51.9859 173.766C53.2163 178.341 55.7533 182.001 59.5977 184.746C61.9044 186.271 64.4417 187.377 67.2096 188.063C69.9777 188.749 72.7456 188.902 75.5134 188.521C78.2815 188.139 80.934 187.186 83.4714 185.661C86.0085 184.136 88.1231 182.23 89.8144 179.942C91.6598 177.35 92.7745 174.376 93.1591 171.021C93.5434 167.666 93.1207 164.54 91.8906 161.643C91.7367 160.88 91.1983 159.812 90.2759 158.44L89.5839 157.067L116.802 113.148C117.724 111.775 118.34 110.708 118.647 109.945L116.341 109.259C114.957 108.954 113.957 108.649 113.342 108.344C109.805 106.819 106.614 104.722 103.77 102.053C100.925 99.3843 98.7333 96.3725 97.1958 93.0176C94.5815 87.5275 93.8895 81.8089 95.1196 75.8611C95.7347 72.3537 97.042 69.0751 99.0409 66.0251C101.04 62.975 103.423 60.3825 106.192 58.2475C111.881 54.13 118.186 52.0712 125.106 52.0712C129.258 51.9187 133.294 52.6431 137.216 54.2444C141.137 55.8456 144.558 58.1712 147.48 61.2212C150.094 63.6613 152.132 66.5969 153.592 70.028C155.053 73.4595 155.861 76.9287 156.014 80.4361C156.014 83.0288 155.553 86.2314 154.63 90.0439L170.777 94.3901L172.622 94.6186C174.775 88.0612 175.313 81.5038 174.236 74.9463C173.621 69.9136 172.122 65.0719 169.739 60.4206C167.355 55.7694 164.318 51.69 160.627 48.1825C154.169 41.7775 146.25 37.5075 136.869 35.3725C135.947 35.0675 134.563 34.7625 132.717 34.4575L129.488 34H120.954ZM125.106 62.365C122.492 62.365 119.877 62.8987 117.263 63.9661C114.649 65.0338 112.304 66.5969 110.228 68.6556C108.152 70.7143 106.653 73.1162 105.73 75.8611C104.5 78.9111 104.192 82.2663 104.807 85.9262C105.269 88.6711 106.345 91.2638 108.037 93.7038C109.728 96.1436 111.881 98.05 114.495 99.4225C118.186 101.71 122.492 102.701 127.412 102.396C127.874 103.006 128.258 103.616 128.566 104.226L154.4 147.917C154.861 148.832 155.323 149.519 155.784 149.976C159.935 146.011 164.433 143.304 169.277 141.856C174.121 140.407 179.119 140.14 184.27 141.055C189.422 141.97 193.92 143.952 197.764 147.002C202.685 150.815 206.029 155.504 207.798 161.071C209.566 166.637 209.605 172.241 207.913 177.884C206.683 182.154 204.492 185.966 201.339 189.321C198.187 192.676 194.458 195.192 190.152 196.87C185.385 198.852 180.272 199.5 174.813 198.814C169.354 198.128 164.472 196.26 160.166 193.21C159.551 192.752 158.552 191.99 157.168 190.923L156.014 189.55C155.399 190.007 154.554 190.77 153.477 191.838L142.636 202.36C146.173 205.868 150.171 208.803 154.63 211.167C159.09 213.531 163.78 215.17 168.701 216.085L173.775 217H182.771L189.23 215.856C199.071 213.874 207.529 209.299 214.602 202.131C217.986 198.776 220.792 194.925 223.022 190.579C225.251 186.233 226.751 181.696 227.519 176.969C228.288 171.479 228.135 166.027 227.058 160.613C225.982 155.199 224.059 150.281 221.292 145.859C218.524 141.436 215.141 137.547 211.143 134.193C207.144 130.837 202.762 128.169 197.995 126.186C192.766 124.051 187.346 122.831 181.733 122.526C176.12 122.221 170.623 122.755 165.241 124.127L161.32 125.271L142.636 93.9324C144.635 91.0349 145.865 88.2137 146.326 85.4688C147.095 80.5887 146.096 76.0137 143.328 71.7438C140.868 67.9312 137.485 65.2626 133.179 63.7376C130.565 62.8225 127.874 62.365 125.106 62.365ZM60.0592 122.755C51.1403 124.737 43.4515 128.779 36.993 134.879C29.7656 141.589 25.0755 149.595 22.9226 158.898L22 164.387V172.851L22.4613 175.368C22.7689 177.35 23.0764 178.875 23.384 179.942C24.4604 184.67 26.3441 189.169 29.0352 193.439C31.7262 197.709 34.9939 201.445 38.8383 204.647C46.527 210.9 55.3691 214.636 65.3645 215.856C71.2078 216.466 77.0512 216.123 82.8945 214.827C88.7382 213.531 94.1203 211.357 99.0409 208.308C107.191 203.122 113.188 196.184 117.032 187.491C118.109 184.899 119.185 181.467 120.262 177.197C121.185 177.045 122.568 177.045 124.414 177.197L153.246 177.655C155.399 177.655 156.937 177.731 157.86 177.884C159.551 180.934 161.473 183.297 163.626 184.975C165.779 186.652 168.201 187.873 170.892 188.635C173.583 189.398 176.313 189.702 179.081 189.55C183.386 189.092 187.23 187.567 190.614 184.975C194.765 181.772 197.226 177.655 197.995 172.622C198.302 170.03 198.187 167.514 197.649 165.074C197.111 162.634 196.073 160.346 194.535 158.211C192.074 154.856 188.922 152.416 185.078 150.891C182.464 149.824 179.734 149.328 176.889 149.404C174.044 149.481 171.315 150.052 168.701 151.12C164.395 152.95 161.089 155.771 158.782 159.584L158.09 160.956C155.938 160.956 152.708 160.88 148.403 160.727L122.338 160.499C120.031 160.346 116.725 160.27 112.419 160.27L100.886 160.041L101.578 163.93C102.808 170.487 101.809 176.664 98.5797 182.459C96.4269 186.576 93.3514 190.007 89.3532 192.752C85.355 195.498 80.9725 197.175 76.2054 197.785C70.8232 198.7 65.4414 198.128 60.0592 196.069C54.6771 194.011 50.2945 190.77 46.9115 186.348C42.6058 181.01 40.5298 174.986 40.6836 168.276C40.8374 162.634 42.6058 157.373 45.9888 152.492C47.9879 149.595 50.4483 147.155 53.3701 145.173C56.2918 143.19 59.4442 141.741 62.8271 140.826L64.903 140.14L60.0592 122.755Z" fill="black"/>
</svg>
